<?xml version="1.0" encoding="UTF-8"?>
<svg id="Layer_1" data-name="Layer 1" xmlns="http://www.w3.org/2000/svg" xmlns:xlink="http://www.w3.org/1999/xlink" viewBox="0 0 225.04 80.47">
  <defs>
    <style>
      .cls-1 {
        fill: url(#linear-gradient-3);
      }

      .cls-1, .cls-2, .cls-3, .cls-4, .cls-5, .cls-6, .cls-7, .cls-8 {
        isolation: isolate;
      }

      .cls-1, .cls-3, .cls-4, .cls-5, .cls-7, .cls-8 {
        mix-blend-mode: multiply;
      }

      .cls-2 {
        fill: #f9f4d9;
        font-family: Nevera-Regular, Nevera;
        font-size: 17px;
      }

      .cls-9 {
        fill: url(#linear-gradient-2);
      }

      .cls-3 {
        fill: url(#linear-gradient-5);
      }

      .cls-4 {
        fill: url(#linear-gradient-10);
      }

      .cls-10 {
        fill: url(#linear-gradient-4);
      }

      .cls-5 {
        fill: url(#linear-gradient-8);
      }

      .cls-7 {
        fill: url(#linear-gradient-11);
      }

      .cls-7, .cls-8 {
        opacity: .3;
      }

      .cls-11 {
        letter-spacing: -.04em;
      }

      .cls-12 {
        fill: #136ade;
      }

      .cls-8 {
        fill: url(#linear-gradient-12);
      }

      .cls-13 {
        fill: url(#linear-gradient-7);
      }

      .cls-14 {
        fill: url(#linear-gradient-9);
      }

      .cls-15 {
        fill: url(#linear-gradient-6);
      }

      .cls-16 {
        letter-spacing: 0em;
      }

      .cls-17 {
        fill: #aa9c00;
      }

      .cls-18 {
        fill: url(#linear-gradient);
      }
    </style>
    <linearGradient id="linear-gradient" x1="19.79" y1="33.41" x2="40.15" y2="33.41" gradientTransform="translate(0 82) scale(1 -1)" gradientUnits="userSpaceOnUse">
      <stop offset="0" stop-color="#fe8500"/>
      <stop offset=".43" stop-color="#f5df00"/>
      <stop offset=".78" stop-color="#645d00"/>
    </linearGradient>
    <linearGradient id="linear-gradient-2" x1="19.79" y1="60.37" x2="40.15" y2="60.37" gradientTransform="translate(0 82) scale(1 -1)" gradientUnits="userSpaceOnUse">
      <stop offset="0" stop-color="#fe8500"/>
      <stop offset=".36" stop-color="#f5df00"/>
      <stop offset=".78" stop-color="#645d00"/>
    </linearGradient>
    <linearGradient id="linear-gradient-3" x1="24.18" y1="60.37" x2="40.14" y2="60.37" gradientTransform="translate(0 82) scale(1 -1)" gradientUnits="userSpaceOnUse">
      <stop offset="0" stop-color="#f2f2f2" stop-opacity="0"/>
      <stop offset="1" stop-color="#3656a6"/>
    </linearGradient>
    <linearGradient id="linear-gradient-4" x1="21.97" y1="26.14" x2="59.72" y2="52.25" gradientTransform="translate(0 82) scale(1 -1)" gradientUnits="userSpaceOnUse">
      <stop offset=".17" stop-color="#fc9700"/>
      <stop offset=".44" stop-color="#f3dd00"/>
      <stop offset=".89" stop-color="#746b00"/>
    </linearGradient>
    <linearGradient id="linear-gradient-5" x1="23.04" y1="33.42" x2="32.58" y2="33.42" gradientTransform="translate(0 82) scale(1 -1)" gradientUnits="userSpaceOnUse">
      <stop offset="0" stop-color="#f2f2f2" stop-opacity="0"/>
      <stop offset="1" stop-color="#d5c400"/>
    </linearGradient>
    <linearGradient id="linear-gradient-6" x1="53.16" y1="33.41" x2="73.51" y2="33.41" gradientTransform="translate(0 82) scale(1 -1)" gradientUnits="userSpaceOnUse">
      <stop offset=".22" stop-color="#645d00"/>
      <stop offset=".5" stop-color="#f5df00"/>
      <stop offset="1" stop-color="#fe8500"/>
    </linearGradient>
    <linearGradient id="linear-gradient-7" x1="53.16" y1="60.37" x2="73.51" y2="60.37" gradientTransform="translate(0 82) scale(1 -1)" gradientUnits="userSpaceOnUse">
      <stop offset="0" stop-color="#645d00"/>
      <stop offset=".5" stop-color="#f5df00"/>
      <stop offset="1" stop-color="#fe8500"/>
    </linearGradient>
    <linearGradient id="linear-gradient-8" x1="53.17" y1="60.37" x2="69.13" y2="60.37" gradientTransform="translate(0 82) scale(1 -1)" gradientUnits="userSpaceOnUse">
      <stop offset=".44" stop-color="#645d00"/>
      <stop offset="1" stop-color="#f2f2f2" stop-opacity="0"/>
    </linearGradient>
    <linearGradient id="linear-gradient-9" x1="42.78" y1="50.38" x2="65.91" y2="50.38" gradientTransform="translate(0 82) scale(1 -1)" gradientUnits="userSpaceOnUse">
      <stop offset="0" stop-color="#645d00"/>
      <stop offset=".46" stop-color="#f5df00"/>
      <stop offset="1" stop-color="#fe8500"/>
    </linearGradient>
    <linearGradient id="linear-gradient-10" x1="60.72" y1="33.42" x2="70.26" y2="33.42" gradientTransform="translate(0 82) scale(1 -1)" gradientUnits="userSpaceOnUse">
      <stop offset="0" stop-color="#645d00"/>
      <stop offset="1" stop-color="#f2f2f2" stop-opacity="0"/>
    </linearGradient>
    <linearGradient id="linear-gradient-11" x1="49.13" y1="39.97" x2="56.38" y2="39.97" gradientTransform="translate(0 82) scale(1 -1)" gradientUnits="userSpaceOnUse">
      <stop offset="0" stop-color="#1467dd" stop-opacity=".5"/>
      <stop offset=".93" stop-color="#f2f2f2" stop-opacity="0"/>
    </linearGradient>
    <linearGradient id="linear-gradient-12" x1="36.93" y1="39.97" x2="44.17" y2="39.97" gradientTransform="translate(0 82) scale(1 -1)" gradientUnits="userSpaceOnUse">
      <stop offset="0" stop-color="#1467dd" stop-opacity=".5"/>
      <stop offset=".93" stop-color="#f2f2f2" stop-opacity="0"/>
    </linearGradient>
  </defs>
  <g class="cls-6">
    <g id="Objects">
      <g>
        <g>
          <g>
            <polygon class="cls-18" points="19.79 44.1 40.15 44.1 40.15 53.09 27.39 53.09 19.79 44.1"/>
            <polygon class="cls-9" points="19.79 26.12 36.69 26.12 33.54 20.68 38.1 20.68 40.15 24.22 40.15 17.14 27.39 17.14 19.79 26.12"/>
            <path class="cls-1" d="M32.6,26.12c-1.29-1.88-2.53-3.11-3.87-3.94-1.13-.7-3.06-1.46-4.55-1.26l3.21-3.79h12.75v7.08l-2.04-3.54h-4.56l3.15,5.45s-4.09,0-4.09,0Z"/>
            <g>
              <polygon class="cls-17" points="40.52 35.11 45.53 43.77 44.17 46.11 43.72 45.34 42.78 43.72 32.6 26.12 27.39 17.14 40.15 17.14 45.52 26.45 40.52 35.11"/>
              <polygon class="cls-12" points="50.52 35.11 48.48 38.66 48.04 39.41 46.78 41.59 45.09 38.66 43.04 35.11 46.78 28.63 48.04 30.81 50.52 35.11"/>
              <polygon class="cls-10" points="37.8 35.11 27.39 53.09 40.15 53.09 44.17 46.11 37.8 35.11"/>
            </g>
          </g>
          <path class="cls-3" d="M32.58,44.1s-3.15,6.22-9.54,3.84l4.35,5.14,5.19-8.99h0Z"/>
          <g>
            <g>
              <polygon class="cls-15" points="73.51 44.1 53.16 44.1 53.16 53.09 65.91 53.09 73.51 44.1"/>
              <polygon class="cls-13" points="73.51 26.12 56.61 26.12 59.77 20.68 55.2 20.68 53.16 24.22 53.16 17.14 65.91 17.14 73.51 26.12"/>
              <path class="cls-5" d="M60.71,26.12c1.29-1.88,2.53-3.11,3.87-3.94,1.13-.7,3.06-1.46,4.55-1.26l-3.21-3.79h-12.75v7.08l2.04-3.54h4.56l-3.15,5.45s4.09,0,4.09,0Z"/>
              <g>
                <polyline class="cls-14" points="44.82 38.66 42.78 35.11 53.16 17.14 65.91 17.14 60.71 26.12 49.58 45.34 49.13 46.11 44.82 38.66"/>
                <polygon class="cls-17" points="55.52 35.09 65.91 53.09 53.15 53.09 49.13 46.11 55.52 35.09"/>
              </g>
            </g>
            <path class="cls-4" d="M60.72,44.1s3.15,6.22,9.54,3.84l-4.35,5.14-5.19-8.99h0Z"/>
            <polygon class="cls-7" points="50.76 48.95 56.38 36.57 55.53 35.11 49.13 46.11 50.76 48.95"/>
          </g>
          <polygon class="cls-8" points="42.54 48.95 36.93 36.57 37.77 35.11 44.17 46.11 42.54 48.95"/>
        </g>
        <g class="cls-6">
          <text class="cls-2" transform="translate(78.13 40.62)"><tspan x="0" y="0">CHO</tspan><tspan class="cls-11" x="41.19" y="0">C</tspan><tspan x="53.48" y="0">O </tspan><tspan class="cls-11" x="74.22" y="0">C</tspan><tspan class="cls-16" x="86.51" y="0">ODE</tspan></text>
        </g>
      </g>
    </g>
  </g>
</svg>